<?xml version="1.0" encoding="UTF-8"?>
<svg xmlns="http://www.w3.org/2000/svg" xmlns:xlink="http://www.w3.org/1999/xlink" width="px" height="px" viewBox="0 0 25 25" version="1.1">
<g id="surface1">
<path style=" stroke:none;fill-rule:nonzero;fill:rgb(88.627451%,43.921569%,13.333333%);fill-opacity:1;" d="M 16.40625 15.410156 L 17.328125 16.34375 L 19.269531 16.777344 L 18.820312 18.1875 L 19.082031 19.304688 L 19.851562 19.054688 L 20.761719 17.328125 L 21.351562 15.453125 C 20.0625 14.539062 19.648438 13.320312 19.132812 12.046875 Z M 16.40625 15.410156 "/>
<path style=" stroke:none;fill-rule:nonzero;fill:rgb(88.627451%,43.921569%,13.333333%);fill-opacity:1;" d="M 10.746094 15.203125 L 10.117188 16.191406 L 9.5625 18.808594 L 9.007812 19.414062 L 7.988281 19.039062 L 7.875 17.21875 C 7.875 17.21875 8.046875 15.648438 8.21875 14.945312 C 8.390625 14.234375 10.070312 14.121094 10.070312 14.121094 Z M 10.746094 15.203125 "/>
<path style=" stroke:none;fill-rule:nonzero;fill:rgb(95.686275%,66.666667%,25.490196%);fill-opacity:1;" d="M 17.640625 10.164062 C 17.632812 10.15625 17.625 10.152344 17.625 10.148438 C 17.628906 10.152344 17.632812 10.15625 17.640625 10.164062 Z M 17.640625 10.164062 "/>
<path style=" stroke:none;fill-rule:nonzero;fill:rgb(95.686275%,66.666667%,25.490196%);fill-opacity:1;" d="M 17.96875 10.59375 C 17.929688 10.546875 17.898438 10.507812 17.867188 10.46875 C 17.925781 10.539062 17.96875 10.59375 17.96875 10.59375 Z M 17.96875 10.59375 "/>
<path style=" stroke:none;fill-rule:nonzero;fill:rgb(95.686275%,66.666667%,25.490196%);fill-opacity:1;" d="M 17.871094 10.464844 C 17.792969 10.363281 17.6875 10.226562 17.640625 10.164062 C 17.671875 10.210938 17.746094 10.304688 17.871094 10.464844 Z M 17.871094 10.464844 "/>
<path style=" stroke:none;fill-rule:nonzero;fill:rgb(95.686275%,66.666667%,25.490196%);fill-opacity:1;" d="M 23.3125 5.742188 L 22.4375 5.632812 L 20.949219 6.171875 C 20.777344 7.246094 20.53125 8.960938 20.53125 8.960938 L 19.117188 10.289062 L 16.828125 10.601562 L 14.863281 9.757812 L 9.46875 9.359375 L 7.234375 9.789062 L 5.039062 8.832031 L 3.5625 7.851562 L 2.300781 8.109375 L 2.910156 9.292969 L 1.757812 11.0625 L 2.085938 12.535156 C 2.085938 12.535156 3.691406 12.539062 4.484375 12.726562 L 5.664062 12.3125 C 5.472656 13.125 5.898438 13.980469 6.199219 14.71875 C 5.203125 15.210938 4.679688 15.625 4.390625 16.328125 C 4.257812 16.65625 4.171875 17.464844 4.117188 17.945312 L 5.085938 18.660156 C 5.085938 18.660156 6.453125 18.554688 5.898438 17.070312 L 6.871094 16.125 C 7.390625 15.847656 8.414062 15.367188 8.414062 15.367188 L 13.453125 15.617188 L 14.40625 16.726562 L 13.945312 19.3125 L 14.828125 19.21875 L 16.523438 16.960938 L 16.523438 15.75 C 16.523438 15.75 18.242188 13.828125 18.617188 12.664062 L 18.621094 12.671875 C 18.621094 12.671875 20.636719 11.625 21.410156 10.054688 C 22.65625 8.300781 21.171875 6.59375 22.953125 7.171875 C 23.398438 7.316406 23.953125 6.414062 23.40625 5.847656 C 23.3125 5.738281 23.34375 5.773438 23.3125 5.738281 Z M 23.3125 5.742188 "/>
<path style="fill:none;stroke-width:2;stroke-linecap:round;stroke-linejoin:round;stroke:rgb(0%,0%,0%);stroke-opacity:1;stroke-miterlimit:10;" d="M 12.453758 35.741273 C 10.125006 36.742524 7.537505 36.573773 7.537505 36.573773 C 5.861254 36.720024 4.421253 32.557521 5.051253 31.83752 L 8.370005 26.741267 L 6.626254 23.321265 C 6.626254 23.321265 11.632507 21.903764 14.501259 25.413766 C 14.85001 25.830017 15.30001 26.156267 15.78376 26.392517 C 15.81751 26.415017 15.84001 26.426267 15.87376 26.448767 C 18.472512 27.731268 21.420014 28.012518 24.266266 27.438768 C 31.48877 25.987517 38.328775 26.066267 45.956279 29.655019 C 53.583784 33.232521 60.491289 27.405018 59.602538 22.151264 C 58.803788 17.505011 63.16879 14.568759 66.352542 17.156261 " transform="matrix(0.347222,0,0,0.347222,0,0)"/>
<path style="fill:none;stroke-width:2;stroke-linecap:round;stroke-linejoin:round;stroke:rgb(0%,0%,0%);stroke-opacity:1;stroke-miterlimit:10;" d="M 16.04251 48.813781 C 16.650011 46.60878 24.536266 45.168779 24.536266 45.168779 C 24.536266 45.168779 27.765018 43.965028 25.965017 40.668776 " transform="matrix(0.347222,0,0,0.347222,0,0)"/>
<path style="fill:none;stroke-width:2;stroke-linecap:round;stroke-linejoin:round;stroke:rgb(0%,0%,0%);stroke-opacity:1;stroke-miterlimit:10;" d="M 18.292512 33.232521 C 16.751261 35.066272 14.400009 38.036274 17.853761 42.390027 C 17.853761 42.390027 11.103757 45.247529 11.846258 50.433782 C 11.846258 50.433782 12.217508 52.908784 14.253759 52.830034 " transform="matrix(0.347222,0,0,0.347222,0,0)"/>
<path style="fill:none;stroke-width:2;stroke-linecap:round;stroke-linejoin:round;stroke:rgb(0%,0%,0%);stroke-opacity:1;stroke-miterlimit:10;" d="M 23.501265 50.028782 C 22.342514 57.285037 25.886267 56.081286 26.516267 55.687536 C 27.663768 54.967535 28.361268 45.832529 30.465019 44.381278 C 32.062521 43.278778 38.632525 44.077528 38.632525 44.077528 " transform="matrix(0.347222,0,0,0.347222,0,0)"/>
<path style="fill:none;stroke-width:2;stroke-linecap:round;stroke-linejoin:round;stroke:rgb(0%,0%,0%);stroke-opacity:1;stroke-miterlimit:10;" d="M 38.441275 41.332526 C 38.531275 43.065028 39.195025 44.730029 40.173776 46.17003 C 40.837526 47.14878 41.973777 48.487531 41.625027 49.162531 C 37.147524 57.656287 42.243777 56.182536 42.705027 55.327535 C 45.900029 49.410032 48.836281 51.221283 47.35128 44.808779 C 47.35128 44.808779 52.627534 42.997528 52.875034 36.832524 " transform="matrix(0.347222,0,0,0.347222,0,0)"/>
<path style="fill:none;stroke-width:2;stroke-linecap:round;stroke-linejoin:round;stroke:rgb(0%,0%,0%);stroke-opacity:1;stroke-miterlimit:10;" d="M 48.150031 45.585029 C 48.150031 45.585029 50.512532 48.791281 55.901286 48.285031 C 55.901286 48.285031 52.582534 55.046285 55.901286 55.901286 C 57.825037 56.396286 60.626289 44.741279 60.626289 44.741279 C 60.626289 44.741279 58.792538 43.942528 56.677536 40.556276 " transform="matrix(0.347222,0,0,0.347222,0,0)"/>
</g>
</svg>
