<?xml version="1.0" encoding="UTF-8"?>
<svg xmlns="http://www.w3.org/2000/svg" xmlns:xlink="http://www.w3.org/1999/xlink" width="50px" height="50px" viewBox="0 0 50 50" version="1.1">
<g id="surface1">
<path style=" stroke:none;fill-rule:nonzero;fill:rgb(88.627451%,43.921569%,13.333333%);fill-opacity:1;" d="M 32.8125 30.820312 L 34.660156 32.691406 L 38.539062 33.554688 L 37.644531 36.375 L 38.164062 38.609375 L 39.699219 38.113281 L 41.523438 34.65625 L 42.703125 30.90625 C 40.121094 29.074219 39.296875 26.640625 38.269531 24.09375 Z M 32.8125 30.820312 "/>
<path style=" stroke:none;fill-rule:nonzero;fill:rgb(88.627451%,43.921569%,13.333333%);fill-opacity:1;" d="M 21.492188 30.410156 L 20.230469 32.382812 L 19.128906 37.617188 L 18.019531 38.832031 L 15.976562 38.078125 L 15.746094 34.433594 C 15.746094 34.433594 16.09375 31.300781 16.4375 29.886719 C 16.785156 28.472656 20.144531 28.242188 20.144531 28.242188 Z M 21.492188 30.410156 "/>
<path style=" stroke:none;fill-rule:nonzero;fill:rgb(95.686275%,66.666667%,25.490196%);fill-opacity:1;" d="M 35.277344 20.332031 C 35.265625 20.316406 35.253906 20.304688 35.246094 20.292969 C 35.257812 20.304688 35.265625 20.316406 35.277344 20.332031 Z M 35.277344 20.332031 "/>
<path style=" stroke:none;fill-rule:nonzero;fill:rgb(95.686275%,66.666667%,25.490196%);fill-opacity:1;" d="M 35.9375 21.1875 C 35.863281 21.089844 35.800781 21.011719 35.738281 20.933594 C 35.851562 21.078125 35.9375 21.1875 35.9375 21.1875 Z M 35.9375 21.1875 "/>
<path style=" stroke:none;fill-rule:nonzero;fill:rgb(95.686275%,66.666667%,25.490196%);fill-opacity:1;" d="M 35.742188 20.929688 C 35.585938 20.726562 35.375 20.457031 35.277344 20.332031 C 35.347656 20.417969 35.492188 20.609375 35.742188 20.929688 Z M 35.742188 20.929688 "/>
<path style=" stroke:none;fill-rule:nonzero;fill:rgb(95.686275%,66.666667%,25.490196%);fill-opacity:1;" d="M 46.625 11.480469 L 44.878906 11.261719 L 41.898438 12.34375 C 41.554688 14.492188 41.058594 17.921875 41.058594 17.921875 L 38.234375 20.578125 L 33.660156 21.203125 L 29.726562 19.511719 L 18.941406 18.71875 L 14.46875 19.578125 L 10.078125 17.664062 L 7.121094 15.699219 L 4.601562 16.214844 L 5.820312 18.585938 L 3.515625 22.128906 L 4.167969 25.070312 C 4.167969 25.070312 7.382812 25.078125 8.96875 25.453125 L 11.324219 24.621094 C 10.945312 26.253906 11.800781 27.960938 12.398438 29.441406 C 10.410156 30.417969 9.359375 31.253906 8.777344 32.660156 C 8.511719 33.308594 8.34375 34.929688 8.230469 35.890625 L 10.171875 37.320312 C 10.171875 37.320312 12.90625 37.105469 11.800781 34.144531 L 13.742188 32.246094 C 14.785156 31.695312 16.832031 30.734375 16.832031 30.734375 L 26.902344 31.238281 L 28.808594 33.453125 L 27.886719 38.621094 L 29.660156 38.433594 L 33.050781 33.921875 L 33.050781 31.5 C 33.050781 31.5 36.484375 27.65625 37.234375 25.328125 L 37.242188 25.339844 C 37.242188 25.339844 41.273438 23.25 42.820312 20.113281 C 45.316406 16.601562 42.347656 13.183594 45.902344 14.339844 C 46.796875 14.632812 47.902344 12.824219 46.816406 11.695312 C 46.621094 11.476562 46.6875 11.550781 46.621094 11.476562 Z M 46.625 11.480469 "/>
<path style="fill:none;stroke-width:2;stroke-linecap:round;stroke-linejoin:round;stroke:rgb(0%,0%,0%);stroke-opacity:1;stroke-miterlimit:10;" d="M 12.459375 35.74125 C 10.125 36.7425 7.543125 36.57375 7.543125 36.57375 C 5.866875 36.72 4.426875 32.563125 5.056875 31.8375 L 8.375625 26.74125 L 6.62625 23.32125 C 6.62625 23.32125 11.6325 21.909375 14.506875 25.41375 C 14.855625 25.835625 15.305625 26.15625 15.789375 26.398125 C 15.8175 26.415 15.845625 26.431875 15.879375 26.44875 C 18.4725 27.736875 21.425625 28.018125 24.26625 27.444375 C 31.48875 25.9875 38.334375 26.071875 45.961875 29.655 C 53.589375 33.238125 60.496875 27.405 59.6025 22.156875 C 58.809375 17.510625 63.16875 14.574375 66.3525 17.15625 " transform="matrix(0.694444,0,0,0.694444,0,0)"/>
<path style="fill:none;stroke-width:2;stroke-linecap:round;stroke-linejoin:round;stroke:rgb(0%,0%,0%);stroke-opacity:1;stroke-miterlimit:10;" d="M 16.048125 48.819375 C 16.65 46.614375 24.541875 45.174375 24.541875 45.174375 C 24.541875 45.174375 27.770625 43.970625 25.965 40.66875 " transform="matrix(0.694444,0,0,0.694444,0,0)"/>
<path style="fill:none;stroke-width:2;stroke-linecap:round;stroke-linejoin:round;stroke:rgb(0%,0%,0%);stroke-opacity:1;stroke-miterlimit:10;" d="M 18.298125 33.238125 C 16.756875 35.071875 14.405625 38.041875 17.859375 42.395625 C 17.859375 42.395625 11.10375 45.253125 11.851875 50.43375 C 11.851875 50.43375 12.2175 52.90875 14.25375 52.835625 " transform="matrix(0.694444,0,0,0.694444,0,0)"/>
<path style="fill:none;stroke-width:2;stroke-linecap:round;stroke-linejoin:round;stroke:rgb(0%,0%,0%);stroke-opacity:1;stroke-miterlimit:10;" d="M 23.50125 50.02875 C 22.3425 57.285 25.88625 56.086875 26.51625 55.693125 C 27.66375 54.973125 28.366875 45.838125 30.470625 44.38125 C 32.0625 43.27875 38.638125 44.0775 38.638125 44.0775 " transform="matrix(0.694444,0,0,0.694444,0,0)"/>
<path style="fill:none;stroke-width:2;stroke-linecap:round;stroke-linejoin:round;stroke:rgb(0%,0%,0%);stroke-opacity:1;stroke-miterlimit:10;" d="M 38.44125 41.3325 C 38.53125 43.070625 39.195 44.73 40.17375 46.175625 C 40.8375 47.14875 41.979375 48.493125 41.625 49.1625 C 37.1475 57.661875 42.249375 56.1825 42.710625 55.3275 C 45.9 49.41 48.83625 51.22125 47.356875 44.80875 C 47.356875 44.80875 52.6275 42.9975 52.875 36.8325 " transform="matrix(0.694444,0,0,0.694444,0,0)"/>
<path style="fill:none;stroke-width:2;stroke-linecap:round;stroke-linejoin:round;stroke:rgb(0%,0%,0%);stroke-opacity:1;stroke-miterlimit:10;" d="M 48.15 45.590625 C 48.15 45.590625 50.518125 48.79125 55.906875 48.285 C 55.906875 48.285 52.5825 55.04625 55.906875 55.90125 C 57.825 56.39625 60.631875 44.74125 60.631875 44.74125 C 60.631875 44.74125 58.7925 43.948125 56.6775 40.561875 " transform="matrix(0.694444,0,0,0.694444,0,0)"/>
</g>
</svg>
