<?xml version="1.0" encoding="UTF-8"?>
<svg xmlns="http://www.w3.org/2000/svg" xmlns:xlink="http://www.w3.org/1999/xlink" width="px" height="px" viewBox="0 0 25 25" version="1.1">
<g id="surface1">
<path style=" stroke:none;fill-rule:nonzero;fill:rgb(75.294118%,91.764706%,100%);fill-opacity:1;" d="M 11.414062 13.421875 L 5.230469 13.421875 L 5.726562 13.914062 L 7.707031 14.90625 L 10.398438 14.90625 Z M 18.167969 12.183594 C 18.167969 12.183594 17.609375 12.925781 17.796875 13.421875 L 15.136719 13.421875 L 14.078125 14.90625 L 18.105469 14.90625 L 19.21875 14.84375 L 19.59375 13.730469 Z M 9.070312 16.515625 L 12.597656 16.515625 L 11.792969 18 L 8.328125 18 Z M 9.007812 7.230469 L 10.121094 8.53125 L 13.21875 8.53125 L 12.164062 6.984375 Z M 5.414062 9.707031 C 5.414062 9.707031 7.210938 9.582031 7.707031 10.449219 L 8.015625 10.203125 L 7.335938 8.53125 L 5.476562 8.21875 Z M 5.414062 9.707031 "/>
<path style=" stroke:none;fill-rule:nonzero;fill:rgb(12.156863%,52.941176%,86.666667%);fill-opacity:1;" d="M 18.695312 15.226562 L 14.210938 15.226562 C 14.007812 15.226562 13.839844 15.0625 13.839844 14.855469 C 13.839844 14.648438 14.007812 14.484375 14.210938 14.484375 L 18.695312 14.484375 C 18.945312 14.484375 19.171875 14.328125 19.265625 14.09375 C 19.359375 13.859375 19.304688 13.59375 19.125 13.417969 L 16.355469 10.753906 L 7.914062 10.753906 C 7.710938 10.753906 7.539062 10.585938 7.539062 10.382812 L 7.539062 10.078125 C 7.546875 9.570312 7.296875 9.089844 6.875 8.800781 C 6.535156 8.554688 6.109375 8.464844 5.695312 8.546875 L 5.695312 13.554688 L 7.757812 14.484375 L 8.5 14.484375 C 8.707031 14.484375 8.875 14.648438 8.875 14.855469 C 8.875 15.0625 8.707031 15.226562 8.5 15.226562 L 7.679688 15.226562 C 7.625 15.226562 7.574219 15.214844 7.523438 15.195312 L 5.171875 14.132812 C 5.039062 14.074219 4.953125 13.941406 4.953125 13.796875 L 4.953125 8.265625 C 4.953125 8.109375 5.046875 7.96875 5.195312 7.914062 C 5.902344 7.652344 6.6875 7.757812 7.304688 8.191406 C 7.902344 8.605469 8.265625 9.28125 8.28125 10.007812 L 16.507812 10.007812 C 16.601562 10.007812 16.695312 10.046875 16.765625 10.117188 L 19.640625 12.882812 C 19.90625 13.140625 20.054688 13.492188 20.054688 13.863281 C 20.054688 14.617188 19.445312 15.226562 18.695312 15.226562 Z M 18.695312 15.226562 "/>
<path style=" stroke:none;fill-rule:nonzero;fill:rgb(12.156863%,52.941176%,86.666667%);fill-opacity:1;" d="M 11.617188 18.289062 L 8.265625 18.289062 C 8.125 18.289062 8 18.207031 7.9375 18.082031 C 7.875 17.957031 7.886719 17.804688 7.96875 17.695312 L 11.230469 13.320312 C 11.308594 13.210938 11.4375 13.148438 11.574219 13.164062 C 11.707031 13.179688 11.820312 13.265625 11.875 13.390625 C 11.929688 13.515625 11.90625 13.65625 11.828125 13.765625 L 9.007812 17.546875 L 11.445312 17.546875 L 14.808594 13.441406 C 14.9375 13.289062 15.171875 13.269531 15.328125 13.398438 C 15.484375 13.523438 15.507812 13.753906 15.382812 13.914062 L 11.90625 18.148438 C 11.835938 18.234375 11.730469 18.289062 11.617188 18.289062 Z M 14.917969 10.617188 C 14.804688 10.617188 14.703125 10.566406 14.632812 10.480469 L 12.148438 7.457031 L 9.714844 7.457031 L 10.96875 9.140625 C 11.054688 9.246094 11.070312 9.390625 11.019531 9.515625 C 10.96875 9.636719 10.851562 9.726562 10.71875 9.738281 C 10.585938 9.753906 10.453125 9.695312 10.375 9.585938 L 8.679688 7.304688 C 8.59375 7.195312 8.578125 7.046875 8.640625 6.917969 C 8.703125 6.792969 8.835938 6.710938 8.976562 6.714844 L 12.328125 6.714844 C 12.4375 6.714844 12.542969 6.765625 12.613281 6.851562 L 15.203125 10.007812 C 15.296875 10.121094 15.316406 10.273438 15.253906 10.40625 C 15.195312 10.53125 15.0625 10.617188 14.917969 10.617188 Z M 14.917969 10.617188 "/>
<path style=" stroke:none;fill-rule:nonzero;fill:rgb(12.156863%,52.941176%,86.666667%);fill-opacity:1;" d="M 13.109375 8.65625 L 9.914062 8.65625 C 9.710938 8.65625 9.542969 8.492188 9.542969 8.285156 C 9.542969 8.078125 9.710938 7.914062 9.914062 7.914062 L 13.109375 7.914062 C 13.3125 7.914062 13.476562 8.078125 13.476562 8.285156 C 13.476562 8.492188 13.3125 8.65625 13.109375 8.65625 Z M 12.621094 17.023438 L 9.429688 17.023438 C 9.222656 17.023438 9.054688 16.855469 9.054688 16.648438 C 9.054688 16.445312 9.222656 16.28125 9.429688 16.28125 L 12.621094 16.28125 C 12.828125 16.28125 12.992188 16.445312 12.992188 16.648438 C 12.992188 16.855469 12.828125 17.023438 12.621094 17.023438 Z M 11.386719 12.296875 L 11.058594 12.296875 C 10.851562 12.296875 10.6875 12.132812 10.6875 11.925781 C 10.6875 11.71875 10.851562 11.554688 11.058594 11.554688 L 11.386719 11.554688 C 11.59375 11.554688 11.757812 11.71875 11.757812 11.925781 C 11.757812 12.132812 11.59375 12.296875 11.386719 12.296875 Z M 13.507812 12.296875 L 13.179688 12.296875 C 12.976562 12.296875 12.808594 12.132812 12.808594 11.925781 C 12.808594 11.71875 12.976562 11.554688 13.179688 11.554688 L 13.507812 11.554688 C 13.710938 11.554688 13.878906 11.71875 13.878906 11.925781 C 13.878906 12.132812 13.710938 12.296875 13.507812 12.296875 Z M 9.265625 12.296875 L 8.9375 12.296875 C 8.734375 12.296875 8.570312 12.132812 8.570312 11.925781 C 8.570312 11.71875 8.734375 11.554688 8.9375 11.554688 L 9.265625 11.554688 C 9.46875 11.554688 9.640625 11.71875 9.640625 11.925781 C 9.640625 12.132812 9.46875 12.296875 9.265625 12.296875 Z M 17.949219 12.296875 L 15.5625 12.296875 C 15.359375 12.296875 15.195312 12.132812 15.195312 11.925781 C 15.195312 11.71875 15.359375 11.554688 15.5625 11.554688 L 17.949219 11.554688 C 18.15625 11.554688 18.320312 11.71875 18.320312 11.925781 C 18.320312 12.132812 18.15625 12.296875 17.949219 12.296875 Z M 17.949219 12.296875 "/>
</g>
</svg>
