<?xml version="1.0" encoding="UTF-8"?>
<svg xmlns="http://www.w3.org/2000/svg" xmlns:xlink="http://www.w3.org/1999/xlink" width="50px" height="50px" viewBox="0 0 50 50" version="1.1">
<g id="surface1">
<path style=" stroke:none;fill-rule:nonzero;fill:rgb(75.294118%,91.764706%,100%);fill-opacity:1;" d="M 22.824219 26.839844 L 10.460938 26.839844 L 11.453125 27.832031 L 15.414062 29.8125 L 20.792969 29.8125 Z M 36.335938 24.367188 C 36.335938 24.367188 35.222656 25.851562 35.59375 26.839844 L 30.273438 26.839844 L 28.160156 29.8125 L 36.210938 29.8125 L 38.441406 29.6875 L 39.183594 27.460938 Z M 18.136719 33.03125 L 25.195312 33.03125 L 23.585938 36.003906 L 16.652344 36.003906 Z M 18.011719 14.460938 L 20.242188 17.058594 L 26.433594 17.058594 L 24.328125 13.964844 Z M 10.832031 19.414062 C 10.832031 19.414062 14.421875 19.164062 15.414062 20.898438 L 16.03125 20.402344 L 14.671875 17.058594 L 10.957031 16.441406 Z M 10.832031 19.414062 "/>
<path style=" stroke:none;fill-rule:nonzero;fill:rgb(12.156863%,52.941176%,86.666667%);fill-opacity:1;" d="M 37.386719 30.453125 L 28.421875 30.453125 C 28.011719 30.453125 27.679688 30.121094 27.679688 29.710938 C 27.679688 29.300781 28.011719 28.96875 28.421875 28.96875 L 37.386719 28.96875 C 37.890625 28.964844 38.347656 28.660156 38.535156 28.191406 C 38.722656 27.722656 38.609375 27.1875 38.246094 26.835938 L 32.710938 21.507812 L 15.828125 21.507812 C 15.417969 21.507812 15.082031 21.175781 15.082031 20.765625 L 15.082031 20.15625 C 15.089844 19.136719 14.59375 18.179688 13.753906 17.601562 C 13.070312 17.113281 12.214844 16.929688 11.390625 17.089844 L 11.390625 27.109375 L 15.515625 28.96875 L 17.003906 28.96875 C 17.414062 28.96875 17.746094 29.300781 17.746094 29.710938 C 17.746094 30.121094 17.414062 30.453125 17.003906 30.453125 L 15.355469 30.453125 C 15.25 30.453125 15.148438 30.429688 15.050781 30.386719 L 10.339844 28.265625 C 10.074219 28.148438 9.90625 27.882812 9.902344 27.589844 L 9.902344 16.527344 C 9.902344 16.214844 10.097656 15.933594 10.394531 15.828125 C 11.804688 15.304688 13.378906 15.511719 14.605469 16.382812 C 15.804688 17.210938 16.535156 18.566406 16.566406 20.019531 L 33.011719 20.019531 C 33.203125 20.019531 33.386719 20.09375 33.527344 20.230469 L 39.277344 25.765625 C 39.808594 26.28125 40.109375 26.988281 40.113281 27.726562 C 40.109375 29.230469 38.890625 30.449219 37.386719 30.453125 Z M 37.386719 30.453125 "/>
<path style=" stroke:none;fill-rule:nonzero;fill:rgb(12.156863%,52.941176%,86.666667%);fill-opacity:1;" d="M 23.238281 36.574219 L 16.535156 36.574219 C 16.253906 36.574219 15.996094 36.414062 15.871094 36.164062 C 15.746094 35.914062 15.773438 35.613281 15.941406 35.386719 L 22.460938 26.636719 C 22.617188 26.417969 22.878906 26.300781 23.148438 26.328125 C 23.414062 26.359375 23.644531 26.53125 23.75 26.78125 C 23.855469 27.027344 23.816406 27.3125 23.652344 27.527344 L 18.015625 35.089844 L 22.886719 35.089844 L 29.617188 26.882812 C 29.878906 26.578125 30.339844 26.539062 30.652344 26.792969 C 30.964844 27.050781 31.015625 27.507812 30.765625 27.824219 L 23.8125 36.300781 C 23.671875 36.472656 23.460938 36.574219 23.238281 36.574219 Z M 29.835938 21.230469 C 29.613281 21.230469 29.402344 21.132812 29.261719 20.960938 L 24.300781 14.914062 L 19.429688 14.914062 L 21.9375 18.28125 C 22.105469 18.492188 22.144531 18.777344 22.039062 19.027344 C 21.933594 19.273438 21.703125 19.449219 21.433594 19.476562 C 21.167969 19.507812 20.902344 19.386719 20.746094 19.167969 L 17.355469 14.613281 C 17.1875 14.390625 17.160156 14.089844 17.285156 13.835938 C 17.410156 13.585938 17.667969 13.425781 17.949219 13.429688 L 24.652344 13.429688 C 24.875 13.429688 25.085938 13.527344 25.226562 13.699219 L 30.410156 20.019531 C 30.59375 20.242188 30.632812 20.546875 30.507812 20.808594 C 30.386719 21.066406 30.125 21.230469 29.835938 21.230469 Z M 29.835938 21.230469 "/>
<path style=" stroke:none;fill-rule:nonzero;fill:rgb(12.156863%,52.941176%,86.666667%);fill-opacity:1;" d="M 26.214844 17.3125 L 19.828125 17.3125 C 19.417969 17.3125 19.085938 16.980469 19.085938 16.570312 C 19.085938 16.160156 19.417969 15.824219 19.828125 15.824219 L 26.214844 15.824219 C 26.625 15.824219 26.957031 16.160156 26.957031 16.570312 C 26.957031 16.980469 26.625 17.3125 26.214844 17.3125 Z M 25.242188 34.042969 L 18.855469 34.042969 C 18.445312 34.042969 18.113281 33.710938 18.113281 33.300781 C 18.113281 32.890625 18.445312 32.558594 18.855469 32.558594 L 25.242188 32.558594 C 25.652344 32.558594 25.984375 32.890625 25.984375 33.300781 C 25.984375 33.710938 25.652344 34.042969 25.242188 34.042969 Z M 22.773438 24.59375 L 22.117188 24.59375 C 21.707031 24.59375 21.375 24.261719 21.375 23.851562 C 21.375 23.441406 21.707031 23.109375 22.117188 23.109375 L 22.773438 23.109375 C 23.183594 23.109375 23.515625 23.441406 23.515625 23.851562 C 23.515625 24.261719 23.183594 24.59375 22.773438 24.59375 Z M 27.011719 24.59375 L 26.359375 24.59375 C 25.949219 24.59375 25.617188 24.261719 25.617188 23.851562 C 25.617188 23.441406 25.949219 23.109375 26.359375 23.109375 L 27.011719 23.109375 C 27.421875 23.109375 27.757812 23.441406 27.757812 23.851562 C 27.757812 24.261719 27.421875 24.59375 27.011719 24.59375 Z M 18.53125 24.59375 L 17.878906 24.59375 C 17.46875 24.59375 17.136719 24.261719 17.136719 23.851562 C 17.136719 23.441406 17.46875 23.109375 17.878906 23.109375 L 18.53125 23.109375 C 18.941406 23.109375 19.277344 23.441406 19.277344 23.851562 C 19.277344 24.261719 18.941406 24.59375 18.53125 24.59375 Z M 35.898438 24.59375 L 31.128906 24.59375 C 30.71875 24.59375 30.386719 24.261719 30.386719 23.851562 C 30.386719 23.441406 30.71875 23.109375 31.128906 23.109375 L 35.898438 23.109375 C 36.308594 23.109375 36.640625 23.441406 36.640625 23.851562 C 36.640625 24.261719 36.308594 24.59375 35.898438 24.59375 Z M 35.898438 24.59375 "/>
</g>
</svg>
