<?xml version="1.0" encoding="UTF-8"?>
<svg xmlns="http://www.w3.org/2000/svg" xmlns:xlink="http://www.w3.org/1999/xlink" width="px" height="px" viewBox="0 0 25 25" version="1.1">
<g id="surface1">
<path style=" stroke:none;fill-rule:nonzero;fill:rgb(100%,86.666667%,40.392157%);fill-opacity:1;" d="M 24.21875 12.5 C 24.21875 18.972656 18.972656 24.21875 12.5 24.21875 C 6.027344 24.21875 0.78125 18.972656 0.78125 12.5 C 0.78125 6.027344 6.027344 0.78125 12.5 0.78125 C 18.972656 0.78125 24.21875 6.027344 24.21875 12.5 Z M 24.21875 12.5 "/>
<path style=" stroke:none;fill-rule:nonzero;fill:rgb(40%,30.588235%,15.294118%);fill-opacity:1;" d="M 18.945312 14.609375 C 18.945312 15.6875 18.070312 16.5625 16.992188 16.5625 C 15.914062 16.5625 15.039062 15.6875 15.039062 14.609375 C 15.039062 13.53125 15.914062 12.65625 16.992188 12.65625 C 18.070312 12.65625 18.945312 13.53125 18.945312 14.609375 Z M 18.945312 14.609375 "/>
<path style=" stroke:none;fill-rule:nonzero;fill:rgb(40%,30.588235%,15.294118%);fill-opacity:1;" d="M 9.960938 14.609375 C 9.960938 15.6875 9.085938 16.5625 8.007812 16.5625 C 6.929688 16.5625 6.054688 15.6875 6.054688 14.609375 C 6.054688 13.53125 6.929688 12.65625 8.007812 12.65625 C 9.085938 12.65625 9.960938 13.53125 9.960938 14.609375 Z M 9.960938 14.609375 "/>
<path style=" stroke:none;fill-rule:nonzero;fill:rgb(40%,30.588235%,15.294118%);fill-opacity:1;" d="M 7.578125 9.257812 C 10.742188 7.03125 14.257812 7.070312 17.421875 9.257812 C 17.8125 9.53125 18.125 9.0625 17.890625 8.632812 C 16.914062 7.070312 15 5.664062 12.5 5.664062 C 10 5.664062 8.085938 7.070312 7.109375 8.632812 C 6.875 9.0625 7.1875 9.53125 7.578125 9.257812 "/>
</g>
</svg>
