<?xml version="1.0" encoding="UTF-8"?>
<svg xmlns="http://www.w3.org/2000/svg" xmlns:xlink="http://www.w3.org/1999/xlink" width="50px" height="50px" viewBox="0 0 50 50" version="1.1">
<g id="surface1">
<path style=" stroke:none;fill-rule:nonzero;fill:rgb(100%,86.666667%,40.392157%);fill-opacity:1;" d="M 48.4375 25 C 48.4375 37.945312 37.945312 48.4375 25 48.4375 C 12.054688 48.4375 1.5625 37.945312 1.5625 25 C 1.5625 12.054688 12.054688 1.5625 25 1.5625 C 37.945312 1.5625 48.4375 12.054688 48.4375 25 Z M 48.4375 25 "/>
<path style=" stroke:none;fill-rule:nonzero;fill:rgb(40%,30.588235%,15.294118%);fill-opacity:1;" d="M 37.890625 29.21875 C 37.890625 31.375 36.140625 33.125 33.984375 33.125 C 31.828125 33.125 30.078125 31.375 30.078125 29.21875 C 30.078125 27.0625 31.828125 25.3125 33.984375 25.3125 C 36.140625 25.3125 37.890625 27.0625 37.890625 29.21875 Z M 37.890625 29.21875 "/>
<path style=" stroke:none;fill-rule:nonzero;fill:rgb(40%,30.588235%,15.294118%);fill-opacity:1;" d="M 19.921875 29.21875 C 19.921875 31.375 18.171875 33.125 16.015625 33.125 C 13.859375 33.125 12.109375 31.375 12.109375 29.21875 C 12.109375 27.0625 13.859375 25.3125 16.015625 25.3125 C 18.171875 25.3125 19.921875 27.0625 19.921875 29.21875 Z M 19.921875 29.21875 "/>
<path style=" stroke:none;fill-rule:nonzero;fill:rgb(40%,30.588235%,15.294118%);fill-opacity:1;" d="M 15.15625 18.515625 C 21.484375 14.0625 28.515625 14.140625 34.84375 18.515625 C 35.625 19.0625 36.25 18.125 35.78125 17.265625 C 33.828125 14.140625 30 11.328125 25 11.328125 C 20 11.328125 16.171875 14.140625 14.21875 17.265625 C 13.75 18.125 14.375 19.0625 15.15625 18.515625 "/>
</g>
</svg>
